<mxfile host="app.diagrams.net" modified="2024-02-20T07:47:12.406Z" agent="Mozilla/5.0 (Windows NT 10.0; Win64; x64; rv:122.0) Gecko/20100101 Firefox/122.0" version="23.1.5" etag="6onAcKo53FjGktO-nDeG" type="github">
  <diagram name="Page-1" id="6U74pqHZd-W67Y1fHiGo">
    <mxGraphModel>
      <root>
        <mxCell id="0" />
        <mxCell id="1" parent="0" />
      </root>
    </mxGraphModel>
  </diagram>
</mxfile>
